<?xml version="1.0" encoding="iso-8859-1"?>
<!-- Generator: Adobe Illustrator 19.0.0, SVG Export Plug-In . SVG Version: 6.00 Build 0)  -->
<svg version="1.1" id="Layer_1" xmlns="http://www.w3.org/2000/svg" xmlns:xlink="http://www.w3.org/1999/xlink" x="0px" y="0px"
	 viewBox="0 0 512 512" style="enable-background:new 0 0 512 512;" xml:space="preserve">
<g>
	<g>
		<path d="M512,279.818C512,152.07,408.139,48.089,280.478,48.089h-7.806v223.758H48.914v7.805
			c0,61.962,23.898,120.189,67.683,163.954c41.933,41.913,96.92,65.768,155.905,67.691l0.003,0.487l15.611-0.096l-0.002-0.395
			c58.942-1.955,114.076-25.815,155.986-67.679C487.886,399.879,512,341.691,512,279.818z M272.672,287.458v33.303h-8.326v15.611
			h8.326v103.033h15.611V287.458H440.23v-15.611h-71.811v-7.285h-16.652v7.285h-63.485v-17.894c2.755,1.117,5.762,1.738,8.912,1.738
			c13.122,0,23.796-10.675,23.796-23.796c0-13.122-10.675-23.796-23.796-23.796c-3.15,0-6.158,0.621-8.912,1.738v-82.651h7.285
			v-15.611h-7.285V95.977c23.586,1.047,45.994,6.517,66.431,15.597h-10.231v15.611h15.611V114.06
			c51.5,24.907,89.541,73.075,100.688,130.736l-4.717,2.358l-15.392-7.696l-27.054,9.018l4.937,14.81l20.92-6.973l16.589,8.295
			l7.123-3.561c0.364,3.571,0.615,7.174,0.772,10.801h-15.404v15.611h15.426c-1.279,31.716-10.603,61.398-25.994,87.044
			c-3.63-8.509-12.079-14.49-21.9-14.49c-13.122,0-23.796,10.675-23.796,23.796c0,12.027,8.97,21.993,20.571,23.573
			c-31.747,33.112-75.708,54.402-124.579,56.537v-15.146h-15.611v15.169c-2.791-0.112-5.567-0.287-8.326-0.525v-7.359h-16.652v5.168
			c-29.629-5.316-56.817-17.778-79.744-35.492l24.562-24.562l-33.653-33.653l-24.544,24.545c-4.236-5.495-8.175-11.227-11.78-17.182
			h5.474v-15.611h-13.926c-10.541-21.936-16.837-46.235-17.849-71.811H272.672z M289.009,231.894c0-4.514,3.672-8.185,8.185-8.185
			c4.514,0,8.185,3.672,8.185,8.185s-3.672,8.185-8.185,8.185C292.681,240.079,289.009,236.408,289.009,231.894z M424.272,383.809
			c0,4.514-3.672,8.185-8.185,8.185s-8.185-3.672-8.185-8.185c0-4.514,3.672-8.185,8.185-8.185S424.272,379.295,424.272,383.809z
			 M158.861,412.747l-11.576-11.576l11.576-11.576l11.576,11.576L158.861,412.747z M288.018,495.675l-0.049-7.974l-15.611,0.096
			l0.049,7.875c-54.796-1.939-106.026-24.165-144.987-63.108c-38.99-38.972-61.253-90.246-63.186-145.107h16.379
			c3.842,106.932,91.873,192.259,199.55,192.259c110.114,0,199.595-89.66,199.595-199.774c0-107.328-85.017-195.209-191.475-199.587
			V63.938c112.787,4.036,203.805,95.066,207.943,207.908h-7.081v15.611h7.099c-1.884,54.853-24.138,106.143-63.176,145.135
			C394.082,471.534,342.829,493.752,288.018,495.675z"/>
	</g>
</g>
<g>
	<g>
		<path d="M239.369,0.215h-7.177h-0.629C104.161,0.215,0,104.094,0,231.779v7.805h0.512v0.116h139.732
			c2.309,0,4.187,1.879,4.187,4.188c0,10.917,8.882,19.799,19.798,19.799h7.996c10.916,0,19.798-8.882,19.798-19.799
			c0-2.309,1.88-4.188,4.188-4.188h43.785V0.215H239.369z M176.413,243.887c0,2.309-1.878,4.188-4.188,4.188h-7.996
			c-2.309,0-4.187-1.878-4.187-4.188c0-1.479-0.176-2.916-0.485-4.303h17.341C176.588,240.971,176.413,242.409,176.413,243.887z
			 M223.758,223.973h-87.422v-7.285h-15.611v7.285H48.301c1.161-26.063,7.745-50.708,18.63-72.851h13.205v-15.611h-4.569
			c18.631-30.142,45.66-54.514,77.717-69.844c-0.555,2.013-0.858,4.131-0.858,6.317c0,13.122,10.675,23.796,23.795,23.796
			c13.122,0,23.796-10.675,23.796-23.796c0-7.94-3.912-14.978-9.906-19.304c10.887-2.567,22.134-4.155,33.645-4.674V223.973z
			 M168.038,71.985c0-4.514,3.672-8.185,8.184-8.185c4.514,0,8.185,3.672,8.185,8.185s-3.672,8.185-8.185,8.185
			C171.709,80.171,168.038,76.499,168.038,71.985z M223.758,32.385C120.072,36.655,36.925,120.264,32.68,223.973H16.268
			c4.078-112.691,94.866-203.636,207.49-207.977V32.385z"/>
	</g>
</g>
<g>
	<g>
		<path d="M104.264,160.125c-13.122,0-23.796,10.675-23.796,23.796s10.675,23.796,23.796,23.796
			c13.122,0,23.796-10.675,23.796-23.796S117.385,160.125,104.264,160.125z M104.264,192.107c-4.514,0-8.185-3.672-8.185-8.185
			s3.672-8.185,8.185-8.185c4.514,0,8.185,3.672,8.185,8.185S108.777,192.107,104.264,192.107z"/>
	</g>
</g>
<g>
	<g>
		<path d="M392.1,192.107c-13.12,0-23.795,10.675-23.795,23.796c0,13.122,10.675,23.796,23.795,23.796
			c13.122,0,23.796-10.675,23.796-23.796C415.897,202.782,405.222,192.107,392.1,192.107z M392.1,224.089
			c-4.513,0-8.184-3.672-8.184-8.185s3.672-8.185,8.184-8.185c4.514,0,8.185,3.672,8.185,8.185S396.614,224.089,392.1,224.089z"/>
	</g>
</g>
<g>
	<g>
		<path d="M320.141,320.035c-13.122,0-23.796,10.675-23.796,23.796s10.675,23.796,23.796,23.796
			c13.122,0,23.796-10.675,23.796-23.796S333.262,320.035,320.141,320.035z M320.141,352.016c-4.514,0-8.185-3.672-8.185-8.185
			c0-4.514,3.672-8.185,8.185-8.185s8.185,3.672,8.185,8.185C328.326,348.345,324.655,352.016,320.141,352.016z"/>
	</g>
</g>
<g>
	<g>
		<path d="M224.196,391.994c-13.122,0-23.796,10.675-23.796,23.796c0,13.122,10.675,23.796,23.796,23.796
			s23.796-10.675,23.796-23.796C247.992,402.669,237.317,391.994,224.196,391.994z M224.196,423.976
			c-4.514,0-8.185-3.672-8.185-8.185c0-4.514,3.672-8.185,8.185-8.185s8.185,3.672,8.185,8.185
			C232.381,420.304,228.709,423.976,224.196,423.976z"/>
	</g>
</g>
<g>
	<g>
		<path d="M168.228,304.044c-13.122,0-23.796,10.675-23.796,23.796c0,13.122,10.674,23.796,23.796,23.796
			c13.121,0,23.795-10.675,23.795-23.796C192.024,314.719,181.349,304.044,168.228,304.044z M168.228,336.026
			c-4.514,0-8.185-3.672-8.185-8.185c-0.001-4.514,3.672-8.185,8.185-8.185c4.513,0,8.184,3.672,8.184,8.185
			C176.413,332.354,172.741,336.026,168.228,336.026z"/>
	</g>
</g>
<g>
	<g>
		<polygon points="204.713,184.936 192.213,191.186 176.82,183.49 149.768,192.508 154.705,207.317 175.624,200.344 192.213,208.64 
			211.695,198.899 		"/>
	</g>
</g>
<g>
	<g>
		<polygon points="252.687,352.841 240.187,359.09 224.794,351.395 197.74,360.413 202.678,375.223 223.597,368.25 240.187,376.544 
			259.669,366.803 		"/>
	</g>
</g>
<g>
	<g>
		<polygon points="396.605,296.872 384.104,303.123 368.713,295.427 341.659,304.445 346.596,319.254 367.516,312.281 
			384.104,320.576 403.587,310.836 		"/>
	</g>
</g>
<g>
	<g>
		<path d="M166.856,111.663l-33.653,33.653l33.653,33.653l33.653-33.653L166.856,111.663z M155.279,145.317l11.576-11.576
			l11.576,11.576l-11.576,11.576L155.279,145.317z"/>
	</g>
</g>
<g>
	<g>
		<path d="M334.76,132.906l-33.653,33.653l33.653,33.653l33.653-33.653L334.76,132.906z M323.184,166.559l11.576-11.576
			l11.576,11.576l-11.576,11.576L323.184,166.559z"/>
	</g>
</g>
<g>
	<g>
		<path d="M337.505,375.513l-33.653,33.653l33.653,33.653l33.653-33.653L337.505,375.513z M325.928,409.166l11.576-11.576
			l11.576,11.576l-11.576,11.576L325.928,409.166z"/>
	</g>
</g>
<g>
	<g>
		<rect x="120.725" y="104.292" width="15.611" height="15.611"/>
	</g>
</g>
<g>
	<g>
		<rect x="199.821" y="111.577" width="16.652" height="15.611"/>
	</g>
</g>
<g>
	<g>
		<rect x="392.356" y="159.451" width="15.611" height="15.611"/>
	</g>
</g>
<g>
	<g>
		<rect x="336.157" y="246.872" width="15.611" height="15.611"/>
	</g>
</g>
<g>
	<g>
		<rect x="431.904" y="216.691" width="16.652" height="15.611"/>
	</g>
</g>
<g>
	<g>
		<rect x="303.894" y="295.787" width="16.652" height="15.611"/>
	</g>
</g>
<g>
	<g>
		<rect x="415.252" y="320.764" width="16.652" height="15.611"/>
	</g>
</g>
<g>
	<g>
		<polygon points="375.705,335.331 375.705,344.698 360.094,344.698 360.094,360.309 375.705,360.309 375.705,350.942 
			392.356,350.942 392.356,335.331 		"/>
	</g>
</g>
<g>
	<g>
		<rect x="303.894" y="440.449" width="16.652" height="15.611"/>
	</g>
</g>
<g>
	<g>
		<rect x="216.472" y="295.787" width="15.611" height="15.611"/>
	</g>
</g>
<g>
	<g>
		<rect x="247.694" y="375.923" width="16.652" height="15.611"/>
	</g>
</g>
<g>
	<g>
		<rect x="104.073" y="295.787" width="16.652" height="15.611"/>
	</g>
</g>
<g>
</g>
<g>
</g>
<g>
</g>
<g>
</g>
<g>
</g>
<g>
</g>
<g>
</g>
<g>
</g>
<g>
</g>
<g>
</g>
<g>
</g>
<g>
</g>
<g>
</g>
<g>
</g>
<g>
</g>
</svg>
