<svg height="512pt" viewBox="-10 0 512 512" width="512pt" xmlns="http://www.w3.org/2000/svg"><path d="m449.261719 50.660156c-8.328125-28.910156-34.8125-50.191406-66.261719-50.6367185v-.0234375h-312c-38.597656 0-70 31.402344-70 70 0 24.910156 13.40625 48.140625 34.984375 60.621094 2.726563 1.578125 5.554687 2.960937 8.457031 4.148437-4.667968 21.640625-11.375 41.980469-18.386718 63.222657-12.808594 38.804687-26.054688 78.929687-26.054688 128.007812v126c0 33.085938 26.914062 60 60 60h337.375l73.582031-62.8125c13.371094-11.417969 21.042969-28.050781 21.042969-45.632812v-145.554688c0-95.472656-34.144531-186.058594-42.738281-207.339844zm-130.492188-10.660156c-4.335937 9.097656-6.769531 19.269531-6.769531 30 0 10.527344 2.394531 20.757812 6.789062 30h-71.789062v-30c0-16.542969 13.457031-30 30-30zm-105 0c-4.335937 9.097656-6.769531 19.269531-6.769531 30v110h-40v-110c0-16.542969 13.457031-30 30-30zm-142.769531 0h62.769531c-4.335937 9.097656-6.769531 19.269531-6.769531 30v30h-56c-5.277344 0-10.460938-1.382812-14.984375-4.003906-9.261719-5.355469-15.015625-15.316406-15.015625-25.996094 0-16.542969 13.457031-30 30-30zm-31 412v-126c0-42.648438 11.675781-78.019531 24.039062-115.46875 7.394532-22.398438 14.988282-45.417969 20.179688-70.53125h42.78125v80h120v-80h135v-40c-5.277344 0-10.460938-1.382812-14.984375-4.003906-9.261719-5.355469-15.015625-15.316406-15.015625-25.996094 0-16.542969 13.457031-30 30-30 13.699219 0 25.277344 9.234375 28.851562 21.804688l-.226562.09375c.03125.066406.257812.605468.644531 1.546874.472657 2.113282.730469 4.304688.730469 6.554688v20c0 30.8125-8.710938 65.253906-17.9375 101.71875-10.84375 42.886719-22.0625 87.230469-22.0625 134.28125v146h-312c-11.027344 0-20-8.972656-20-20zm412-48.445312c0 5.859374-2.558594 11.40625-7.015625 15.210937l-32.984375 28.160156v-120.925781c0-42.070312 10.597656-83.960938 20.84375-124.472656 3.109375-12.296875 6.164062-24.375 8.886719-36.273438 5.898437 28.503906 10.269531 60.5 10.269531 92.746094zm0 0"/></svg>